<svg width="35" height="34" viewBox="0 0 35 34" fill="none" xmlns="http://www.w3.org/2000/svg">
<path d="M12.95 31.1668V12.4314C10.8014 11.8647 9.08369 10.6783 7.79688 8.87204C6.51008 7.06579 5.86668 5.05294 5.86668 2.8335H8.70001C8.70001 4.79322 9.33161 6.4637 10.5948 7.84495C11.858 9.2262 13.4695 9.91683 15.4292 9.91683H18.9708C19.6792 9.91683 20.3403 10.0467 20.9542 10.3064C21.5681 10.5661 22.1229 10.9439 22.6188 11.4397L29.0292 17.8502L27.0458 19.8335L21.45 14.2377V31.1668H18.6167V22.6668H15.7833V31.1668H12.95ZM17.2 8.50016C16.4208 8.50016 15.7538 8.22273 15.199 7.66787C14.6441 7.11301 14.3667 6.446 14.3667 5.66683C14.3667 4.88766 14.6441 4.22065 15.199 3.66579C15.7538 3.11093 16.4208 2.8335 17.2 2.8335C17.9792 2.8335 18.6462 3.11093 19.2011 3.66579C19.7559 4.22065 20.0333 4.88766 20.0333 5.66683C20.0333 6.446 19.7559 7.11301 19.2011 7.66787C18.6462 8.22273 17.9792 8.50016 17.2 8.50016Z" fill="#F2F2F2"/>
</svg>
