<svg width="35" height="34" viewBox="0 0 35 34" fill="none" xmlns="http://www.w3.org/2000/svg">
<path d="M19.0167 32.5833V24.0833L16.0417 21.25L14.625 27.4833L4.85001 25.5L5.41667 22.6667L12.2167 24.0833L14.4833 12.6083L11.9333 13.6V18.4167H9.10001V11.7583L14.6958 9.35C15.5222 8.99583 16.1302 8.76562 16.5198 8.65938C16.9094 8.55312 17.2695 8.5 17.6 8.5C18.0958 8.5 18.5563 8.62986 18.9813 8.88958C19.4063 9.14931 19.7486 9.49167 20.0083 9.91667L21.425 12.1833C22.0389 13.175 22.8712 13.9896 23.9219 14.6271C24.9726 15.2646 26.1708 15.5833 27.5167 15.5833V18.4167C25.9583 18.4167 24.5004 18.092 23.1427 17.4427C21.7851 16.7934 20.6458 15.9375 19.725 14.875L18.875 19.125L21.85 21.9583V32.5833H19.0167ZM19.725 7.79167C18.9458 7.79167 18.2788 7.51424 17.724 6.95937C17.1691 6.40451 16.8917 5.7375 16.8917 4.95833C16.8917 4.17917 17.1691 3.51215 17.724 2.95729C18.2788 2.40243 18.9458 2.125 19.725 2.125C20.5042 2.125 21.1712 2.40243 21.726 2.95729C22.2809 3.51215 22.5583 4.17917 22.5583 4.95833C22.5583 5.7375 22.2809 6.40451 21.726 6.95937C21.1712 7.51424 20.5042 7.79167 19.725 7.79167Z" fill="#F2F2F2"/>
</svg>
