<svg width="35" height="34" viewBox="0 0 35 34" fill="none" xmlns="http://www.w3.org/2000/svg">
<path d="M13.15 31.1668V14.3085C11.9695 14.7099 11.2021 15.4477 10.848 16.522C10.4938 17.5963 10.3167 18.7002 10.3167 19.8335H7.48337C7.48337 16.8113 8.36878 14.4029 10.1396 12.6085C11.9105 10.8141 14.3306 9.91683 17.4 9.91683C19.7611 9.91683 21.532 9.33245 22.7125 8.1637C23.8931 6.99495 24.4834 5.21822 24.4834 2.8335H27.3167C27.3167 4.91127 26.874 6.77065 25.9886 8.41162C25.1032 10.0526 23.657 11.2154 21.65 11.9002V31.1668H18.8167V22.6668H15.9834V31.1668H13.15ZM17.4 8.50016C16.6209 8.50016 15.9539 8.22273 15.399 7.66787C14.8441 7.11301 14.5667 6.446 14.5667 5.66683C14.5667 4.88766 14.8441 4.22065 15.399 3.66579C15.9539 3.11093 16.6209 2.8335 17.4 2.8335C18.1792 2.8335 18.8462 3.11093 19.4011 3.66579C19.9559 4.22065 20.2334 4.88766 20.2334 5.66683C20.2334 6.446 19.9559 7.11301 19.4011 7.66787C18.8462 8.22273 18.1792 8.50016 17.4 8.50016Z" fill="#F2F2F2"/>
</svg>
