<svg width="34" height="34" viewBox="0 0 34 34" fill="none" xmlns="http://www.w3.org/2000/svg">
<path d="M13.0334 33.8582L10.5542 32.4415L14.8042 25.0748L12.3959 23.6582L10.2709 27.3415L7.79169 25.9248L15.0875 13.3165C14.1903 12.3957 13.5174 11.345 13.0688 10.1644C12.6202 8.98386 12.3959 7.76789 12.3959 6.5165C12.3959 5.6665 12.5021 4.82241 12.7146 3.98421C12.9271 3.14602 13.2695 2.33734 13.7417 1.55817L16.15 2.97484C15.8195 3.51789 15.5834 4.07866 15.4417 4.65713C15.3 5.2356 15.2292 5.83178 15.2292 6.44567C15.2292 7.69706 15.5361 8.87171 16.15 9.96963C16.7639 11.0675 17.6375 11.9471 18.7709 12.6082L21.9584 14.4498C23.4222 15.2998 24.4965 16.5217 25.1813 18.1155C25.866 19.7092 26.2084 21.2026 26.2084 22.5957C26.2084 23.4929 26.0903 24.3665 25.8542 25.2165C25.6181 26.0665 25.2875 26.8693 24.8625 27.6248L22.3834 26.2082C22.7139 25.6415 22.95 25.063 23.0917 24.4728C23.2334 23.8825 23.3042 23.2804 23.3042 22.6665C23.3042 21.9109 23.1979 21.179 22.9854 20.4707C22.7729 19.7623 22.4306 19.1012 21.9584 18.4873L13.0334 33.8582ZM22.6667 12.7498C21.8875 12.7498 21.2205 12.4724 20.6656 11.9175C20.1108 11.3627 19.8334 10.6957 19.8334 9.9165C19.8334 9.13734 20.1108 8.47032 20.6656 7.91546C21.2205 7.3606 21.8875 7.08317 22.6667 7.08317C23.4459 7.08317 24.1129 7.3606 24.6677 7.91546C25.2226 8.47032 25.5 9.13734 25.5 9.9165C25.5 10.6957 25.2226 11.3627 24.6677 11.9175C24.1129 12.4724 23.4459 12.7498 22.6667 12.7498ZM19.125 5.6665C18.5111 5.6665 18.0035 5.454 17.6021 5.029C17.2007 4.604 17 4.10817 17 3.5415C17 2.92761 17.2125 2.41998 17.6375 2.01859C18.0625 1.6172 18.5584 1.4165 19.125 1.4165C19.7389 1.4165 20.2465 1.629 20.6479 2.054C21.0493 2.479 21.25 2.97484 21.25 3.5415C21.25 4.15539 21.0375 4.66303 20.6125 5.06442C20.1875 5.46581 19.6917 5.6665 19.125 5.6665Z" fill="#F2F2F2"/>
</svg>
