<svg width="35" height="34" viewBox="0 0 35 34" fill="none" xmlns="http://www.w3.org/2000/svg">
<path d="M10.7167 32.5833L14.6834 12.6083L12.1334 13.6V18.4167H9.30005V11.7583L16.4542 8.7125C16.7848 8.57083 17.133 8.48819 17.499 8.46458C17.865 8.44097 18.2132 8.48819 18.5438 8.60625C18.8744 8.72431 19.1872 8.88958 19.4823 9.10208C19.7775 9.31458 20.0195 9.58611 20.2084 9.91667L21.625 12.1833C22.2389 13.175 23.0712 13.9896 24.1219 14.6271C25.1726 15.2646 26.3709 15.5833 27.7167 15.5833V18.4167C26.0639 18.4167 24.5882 18.0743 23.2896 17.3896C21.991 16.7049 20.8813 15.8313 19.9605 14.7688L19.075 19.125L22.05 21.9583V32.5833H19.2167V23.375L16.2417 21.1083L13.6917 32.5833H10.7167ZM19.925 7.79167C19.1459 7.79167 18.4789 7.51424 17.924 6.95937C17.3691 6.40451 17.0917 5.7375 17.0917 4.95833C17.0917 4.17917 17.3691 3.51215 17.924 2.95729C18.4789 2.40243 19.1459 2.125 19.925 2.125C20.7042 2.125 21.3712 2.40243 21.9261 2.95729C22.481 3.51215 22.7584 4.17917 22.7584 4.95833C22.7584 5.7375 22.481 6.40451 21.9261 6.95937C21.3712 7.51424 20.7042 7.79167 19.925 7.79167Z" fill="#F2F2F2"/>
</svg>
