<svg width="24" height="25" viewBox="0 0 24 25" fill="none" xmlns="http://www.w3.org/2000/svg">
<path d="M20.0016 21.2993H19.2001V22.1007H20.0016V21.2993Z" fill="#F2A316"/>
<path d="M20.7984 18.9001H19.9991V19.7015H20.7984V18.9001Z" fill="#F2A316"/>
<path d="M4.80011 10.9009H4.00085V11.7022H4.80011V10.9009Z" fill="#FAF0CE"/>
<path d="M23.2007 8.50146H22.3993H21.6H20.7985V9.29806V10.0994V10.9008V11.6997V12.5011V13.3V14.099V14.9004V15.6993V16.5007V17.2996H19.9993V18.101V18.9H20.7985V19.6989H19.9993V18.9H19.2V19.6989H18.4007V20.5003H17.5993V21.2992V22.1006H16.7978H16.0007V22.8996H15.1993V23.7009H14.4H13.5985V24.4999H14.4H15.1993H16.0007H16.7978V23.7009H17.5993H18.4007V22.8996H19.2V22.1006V21.2992H19.9993V22.1006H20.7985V21.2992V20.5003H21.6V19.6989H22.3993V18.9V18.101H23.2007V17.2996V16.5007H24V15.6993V14.9004V14.099V13.3V12.5011V11.6997V10.9008V10.0994V9.29806V8.50146H23.2007Z" fill="#F2A316"/>
<path d="M15.1993 23.6797V23.7011H13.5985V24.5001H16.7978V23.7011H18.4007V23.6797H15.1993Z" fill="#1D1D1B"/>
<path d="M20.0016 6.09985H19.2001V6.9012H20.0016V6.09985Z" fill="white"/>
<path d="M19.1999 8.50156V6.0999H18.4006V5.29855H17.5991V4.4972H16.7977V3.69585H15.9984V2.89688H15.1969V2.09554H13.5962V1.29419H7.19766V2.09554H5.59692V2.89688H4.79544V3.69585H3.99618V4.4972H3.1947V5.29855H2.39544V6.89887H1.59396V8.49918H0.79248V16.4984H1.59396V18.0987H2.39544V19.6966H3.1947V20.498H3.99618V21.2993H4.79544V22.1007H5.59692V22.902H7.19766V23.7034H13.5962V22.902H15.1969V22.1007H15.9984V21.2993H16.7977V20.498H17.5991V19.6966H18.4006V18.8953H19.1999V17.2974H20.0014V8.49918H19.1999V8.50156ZM4.00062 9.29815V7.70021H4.79988V6.89887H5.60136V6.09752H6.40062V5.29617H7.2021V4.49482H13.6006V5.29617H14.4021V6.09752H15.2014V6.89887H16.0028V7.70021H16.8021V9.29815H17.6036V15.6994H16.8021V17.2997H16.0028V18.1011H15.2014V18.9001H14.4021V19.7014H13.6006V20.5028H7.2021V19.7014H6.40062V18.9001H5.60136V18.1011H4.79988V17.2997H4.00062V15.6994H3.19914V9.29815H4.00062Z" fill="#FDCC00"/>
<path d="M5.59919 8.50166H4.79993V9.29825V10.0996V10.9009V11.6999V12.5013V13.3002V14.0992V14.9005H5.59919V15.6995V16.5009H6.39845V17.2998H7.19993V18.1012H7.99919H8.80067V18.9002H9.59993H10.3992H11.2007H11.9999H12.7992V18.1012H13.5984H14.3999V17.2998H15.1992V16.5009H16.0007V15.6995V14.9005H16.7977V14.0992V13.3002V12.5013V11.6999V10.9009V10.0996H16.0007V9.29825V8.50166V7.70031H15.1992V6.90134H14.3999V6.09999H13.5984H12.7992V5.30103H11.9999H11.2007H10.3992H9.59993H8.80067H7.99919V6.09999H7.19993H6.39845V6.90134H5.59919V7.70031V8.50166Z" fill="#FDCC00"/>
<path d="M22.399 6.09983V5.30086V4.49951H21.5998V5.30086H20.7983H19.999V6.09983V6.90118V7.70015H20.7983V6.90118H21.5998H22.399V7.70015V8.50149H23.2005V7.70015V6.90118V6.09983H22.399Z" fill="#F2A316"/>
<path d="M20.7985 3.69826V2.90166H19.9993H19.2V2.10032H18.4007V1.30135H17.5992H16.7978V0.5H16.0007H15.1993H14.4H13.5985V1.30135H14.4H15.1993V2.10032H16.0007V2.90166H16.7978V3.69826H17.5992V4.4996H18.4007H19.2H19.9993H20.7985H21.6V3.69826H20.7985Z" fill="#F2A316"/>
<path d="M22.3991 6.09983V5.30086V4.49951H21.5999V5.30086H20.7984H19.9991V6.09983V6.90118V7.70015H20.7984V6.90118H21.5999H22.3991V7.70015V8.50149H23.2006V7.70015V6.90118V6.09983H22.3991Z" fill="#F2A316"/>
<path d="M22.3991 6.09983V5.30086V4.49951H21.5999V5.30086V6.09983H22.3991V6.90118V7.70015V8.50149H23.2006V7.70015V6.90118V6.09983H22.3991Z" fill="#1D1D1B"/>
<path d="M19.1998 2.10034H18.4005V2.90169H19.1998V2.10034Z" fill="#1D1D1B"/>
<path d="M19.2 3.6982H19.9992H20.7985V2.90161H19.9992H19.2V3.6982Z" fill="#1D1D1B"/>
<path d="M17.5991 2.10024H18.4006V1.30127H17.5991H16.7976V2.10024H17.5991Z" fill="#1D1D1B"/>
<path d="M21.5999 3.69824H20.7985V4.49959H21.5999V3.69824Z" fill="#1D1D1B"/>
<path d="M14.4 1.30135H15.1993H16.0007H16.7978V0.5H16.0007H15.1993H14.4H13.5985V1.30135H14.4Z" fill="#1D1D1B"/>
<path d="M19.9992 18.8999H19.2V19.6989H19.9992V18.8999Z" fill="#1D1D1B"/>
<path d="M23.2007 8.50146H22.3992H23.2007V9.29806V10.0994V10.9008V11.6997V12.5011V13.3V14.099V14.9004V15.6993V16.5007H23.9999V15.6993V14.9004V14.099V13.3V12.5011V11.6997V10.9008V10.0994V9.29806V8.50146H23.2007Z" fill="#1D1D1B"/>
<path d="M19.9994 20.5002V21.2992V22.1006H20.7986V21.2992V20.5002H19.9994Z" fill="#1D1D1B"/>
<path d="M21.5999 19.699H20.7985V20.5003H21.5999V19.699Z" fill="#1D1D1B"/>
<path d="M22.3994 16.5007V17.2997V18.101H21.6001V18.9V19.699H22.3994V18.9V18.101H23.2008V17.2997V16.5007H22.3994Z" fill="#1D1D1B"/>
<path d="M16.7978 23.7009H16.0007V24.4999H16.7978V23.7009Z" fill="#1D1D1B"/>
<path d="M19.2001 22.1007V21.2993H18.4009V22.1007V22.8996H19.2001V22.1007Z" fill="#1D1D1B"/>
<path d="M18.4007 22.8997H17.5992V23.701H18.4007V22.8997Z" fill="#1D1D1B"/>
<path d="M13.5986 22.8997V23.701H12.7993H12.0001H11.2008H10.3993H9.60007H8.80081H7.99933H7.20007V24.5H7.99933H8.80081H9.60007H10.3993H11.2008H12.0001H12.7993H13.5986V23.701H14.4001H15.1993V22.8997H14.4001H13.5986Z" fill="#1D1D1B"/>
<path d="M16.0007 22.1008H15.1992V22.9022H16.0007V22.1008Z" fill="#1D1D1B"/>
<path d="M16.7979 21.2995H16.0009V22.1008H16.7979H17.5994V21.2995V20.5005H16.7979V21.2995Z" fill="#1D1D1B"/>
<path d="M18.4008 19.699H17.5994V20.5003H18.4008V19.699Z" fill="#1D1D1B"/>
<path d="M19.1999 18.9001H18.4006V19.7015H19.1999V18.9001Z" fill="#1D1D1B"/>
<path d="M19.2001 18.1012V18.9001H19.9993V18.1012V17.2998H19.2001V18.1012Z" fill="#1D1D1B"/>
<path d="M19.9991 9.29834V10.0997V10.901V11.7V12.5014V13.3003V14.0993V14.9006V15.6996V16.501V17.2999H20.7984V16.501V15.6996V14.9006V14.0993V13.3003V12.5014V11.7V10.901V10.0997V9.29834H19.9991Z" fill="#1D1D1B"/>
<path d="M19.2001 7.70009V8.50144H19.9993V7.70009V6.90112H19.2001V7.70009Z" fill="#1D1D1B"/>
<path d="M19.1999 5.30103H18.4006V6.10237H19.1999V5.30103Z" fill="#1D1D1B"/>
<path d="M15.1994 18.1011H14.4001V18.9H15.1994V18.1011Z" fill="#1D1D1B"/>
<path d="M16.0007 9.29813V10.0995H16.7977V10.9008V11.6998V12.5011V13.3001V14.0991V14.9004H16.0007V15.6994V16.5008H15.1992V17.2997V18.1011H16.0007V17.2997H16.7977V16.5008V15.6994H17.5992V14.9004V14.0991V13.3001V12.5011V11.6998V10.9008V10.0995V9.29813H16.7977V8.50154V7.7002H16.0007V8.50154V9.29813Z" fill="#1D1D1B"/>
<path d="M16.0007 6.90112H15.1992V7.70247H16.0007V6.90112Z" fill="#1D1D1B"/>
<path d="M15.1994 6.09985H14.4001V6.9012H15.1994V6.09985Z" fill="#1D1D1B"/>
<path d="M18.4008 4.49951H17.5994V5.30086H18.4008V4.49951Z" fill="#1D1D1B"/>
<path d="M17.5992 3.69824H16.7977V4.49959H17.5992V3.69824Z" fill="#1D1D1B"/>
<path d="M16.8001 2.90161H16.0009V3.70058H16.8001V2.90161Z" fill="#1D1D1B"/>
<path d="M16.0007 2.10034H15.1992V2.90169H16.0007V2.10034Z" fill="#1D1D1B"/>
<path d="M13.5985 2.10024H14.4H15.1993V1.30127H14.4H13.5985V2.10024Z" fill="#1D1D1B"/>
<path d="M6.39863 22.8997H5.59937V23.701H6.39863H7.20011V22.8997H6.39863Z" fill="#1D1D1B"/>
<path d="M5.60141 22.1008H4.79993V22.9022H5.60141V22.1008Z" fill="#1D1D1B"/>
<path d="M4.0007 21.2995V20.5005H3.19922V21.2995V22.1008H4.0007H4.79996V21.2995H4.0007Z" fill="#1D1D1B"/>
<path d="M3.19941 19.699H2.40015V20.5003H3.19941V19.699Z" fill="#1D1D1B"/>
<path d="M7.99918 20.5005H8.80066H9.59992H10.3992H11.2007H11.9999H12.7992H13.5984V19.6991H14.3999V18.9001H13.5984H12.7992V19.6991H11.9999H11.2007H10.3992H9.59992H8.80066H7.99918V18.9001H7.19992H6.39844V19.6991H7.19992V20.5005H7.99918Z" fill="#1D1D1B"/>
<path d="M6.39863 18.1011H5.59937V18.9H6.39863V18.1011Z" fill="#1D1D1B"/>
<path d="M2.39997 18.1011H1.60071V18.9V19.699H2.39997V18.9V18.1011Z" fill="#1D1D1B"/>
<path d="M1.60092 16.5007H0.799438V17.2997V18.101H1.60092V17.2997V16.5007Z" fill="#1D1D1B"/>
<path d="M0.79926 14.9006V14.0993V13.3003V12.5014V11.7V10.901V10.0997V9.29834H0V10.0997V10.901V11.7V12.5014V13.3003V14.0993V14.9006V15.6996H0.79926V14.9006Z" fill="#1D1D1B"/>
<path d="M5.59922 16.5006H4.79996V15.6993V14.9003H4.0007V14.099V13.3V12.501V11.6997V10.9007V10.0994H4.79996V9.29803V8.50144H5.59922V7.70009V6.90112H4.79996V7.70009H4.0007V8.50144V9.29803H3.19922V10.0994V10.9007V11.6997V12.501V13.3V14.099V14.9003V15.6993H4.0007V16.5006V17.2996H4.79996V18.101H5.59922V17.2996V16.5006Z" fill="#1D1D1B"/>
<path d="M1.60092 7.70009V6.90112H0.799438V7.70009V8.50144H1.60092V7.70009Z" fill="#1D1D1B"/>
<path d="M6.39863 6.09985H5.59937V6.9012H6.39863V6.09985Z" fill="#1D1D1B"/>
<path d="M2.39997 6.09999V5.30103H1.60071V6.09999V6.90134H2.39997V6.09999Z" fill="#1D1D1B"/>
<path d="M7.99918 6.09983V5.30086H8.80066H9.59992H10.3992H11.2007H11.9999H12.7992V6.09983H13.5984H14.3999V5.30086H13.5984V4.49951H12.7992H11.9999H11.2007H10.3992H9.59992H8.80066H7.99918H7.19992V5.30086H6.39844V6.09983H7.19992H7.99918Z" fill="#1D1D1B"/>
<path d="M3.19941 4.49951H2.40015V5.30086H3.19941V4.49951Z" fill="#1D1D1B"/>
<path d="M4.0007 3.69824H3.19922V4.49959H4.0007V3.69824Z" fill="#1D1D1B"/>
<path d="M4.80011 2.90161H4.00085V3.70058H4.80011V2.90161Z" fill="#1D1D1B"/>
<path d="M5.60141 2.10034H4.79993V2.90169H5.60141V2.10034Z" fill="#1D1D1B"/>
<path d="M7.20011 2.10024V1.30127H6.39863H5.59937V2.10024H6.39863H7.20011Z" fill="#1D1D1B"/>
<path d="M8.80081 1.30135H9.60007H10.3993H11.2008H12.0001H12.7993H13.5986V0.5H12.7993H12.0001H11.2008H10.3993H9.60007H8.80081H7.99933H7.20007V1.30135H7.99933H8.80081Z" fill="#1D1D1B"/>
<path d="M21.6001 6.90137H20.7986V7.70034H19.9994V8.50168V9.29828H20.7986V8.50168H21.6001H22.3994V7.70034V6.90137H21.6001Z" fill="white"/>
<path d="M20.7987 4.49951H19.9994H19.2001H18.4009V5.30086H19.2001V6.09983H19.9994V5.30086H20.7987H21.6001V4.49951H20.7987Z" fill="white"/>
<path d="M11.2007 18.9H10.3992H9.59998H8.80072V18.101H7.99924H7.19998V17.2997H6.3985V16.5007H5.59924V17.2997V18.101H6.3985V18.9H7.19998H7.99924V19.699H8.80072H9.59998H10.3992H11.2007H12H12.7992V18.9H12H11.2007Z" fill="white"/>
<path d="M12.7993 18.1011V18.9H13.5986H14.4001V18.1011H13.5986H12.7993Z" fill="white"/>
<path d="M15.1993 17.2998H14.4V18.1012H15.1993V17.2998Z" fill="white"/>
<path d="M5.59906 14.9004H4.7998V15.6994V16.5007H5.59906V15.6994V14.9004Z" fill="white"/>
<path d="M4.79999 13.3V12.5011V11.6997H4.00073V12.5011V13.3V14.099V14.9003H4.79999V14.099V13.3Z" fill="white"/>
<path d="M4.79999 10.0996H4.00073V10.901H4.79999V10.0996Z" fill="white"/>
</svg>
