<svg width="100" height="100" viewBox="0 0 100 100" fill="none" xmlns="http://www.w3.org/2000/svg">
<path d="M50 100C77.6143 100 100 77.6143 100 50C100 22.3857 77.6143 0 50 0C22.3857 0 0 22.3857 0 50C0 77.6143 22.3857 100 50 100Z" fill="#FFC507"/>
<path d="M0.103964 46.7494C0.0349998 47.8241 0 48.908 0 50.0002C0 50.213 0.00132175 50.4255 0.00400032 50.638C1.035 50.2394 2.28207 49.7241 3.67575 49.0834C7.59307 47.2819 12.7146 44.4666 17.454 40.4205C20.9154 37.4659 24.202 33.8294 26.6552 29.4262C29.5082 30.9152 32.2353 32.4594 34.8407 34.0462C27.9332 42.2027 23.3041 50.5477 20.217 58.2655C16.5708 67.3809 15.0881 75.5877 14.5171 81.5255C14.3966 82.7791 14.3166 83.9323 14.2655 84.9723C15.3772 86.108 16.5426 87.1909 17.7576 88.2169C17.7542 86.6702 17.8182 84.5087 18.0721 81.8673C18.6173 76.198 20.0363 68.3334 23.533 59.5916C26.5279 52.1044 31.0561 43.9487 37.8989 35.9634C41.6539 38.3859 45.1411 40.8923 48.3753 43.4409C46.0918 45.9848 44.1671 48.8266 42.6078 51.8627C34.9125 66.8487 35.995 86.9359 47.1268 99.9187C48.0775 99.9726 49.0357 100 50 100C50.6986 100 51.3939 99.9859 52.0853 99.9573C40.0093 88.463 38.1243 68.4119 45.785 53.4944C47.2393 50.6623 49.0318 48.0309 51.1546 45.6912C58.3628 51.6887 64.2203 57.8466 68.9278 63.6277C75.2021 71.3326 79.4346 78.3712 82.0943 83.4709C82.7489 84.7266 83.3082 85.8641 83.7789 86.8648C84.7078 86.0134 85.6043 85.1273 86.4664 84.2084C86.1046 83.4662 85.7036 82.6684 85.2607 81.8194C82.5071 76.5394 78.146 69.2923 71.6971 61.3723C66.9125 55.4966 60.9796 49.2519 53.7043 43.1673C57.0432 40.2034 61.0307 37.8869 65.6457 36.473C74.3493 33.8066 85.4861 34.2909 99.0025 40.0141C98.7082 38.5616 98.3511 37.1319 97.9335 35.7284C84.8936 30.6905 73.7168 30.2652 64.5996 33.0584C59.2568 34.6952 54.6832 37.4187 50.9021 40.8859C47.6278 38.2902 44.1007 35.7366 40.3053 33.2669C48.8914 24.0275 60.7336 15.1475 77.0639 7.9508C75.8389 7.16066 74.5771 6.42259 73.2814 5.73977C57.4086 13.0758 45.7657 22.0164 37.2371 31.3255C34.3793 29.5677 31.3782 27.8598 28.2276 26.218C28.5044 25.5679 28.7629 24.9033 29.0011 24.2237C30.9971 18.5311 31.5521 11.8932 29.8254 4.2373C28.7007 4.73384 27.5977 5.27059 26.5184 5.84573C27.8874 12.5361 27.3203 18.2235 25.6307 23.0419C25.4451 23.5712 25.2456 24.0912 25.033 24.6018C20.6642 22.4567 16.0223 20.4407 11.093 18.5929C10.3132 19.5577 9.56853 20.5521 8.86103 21.5741C14.0471 23.4791 18.9096 25.5737 23.466 27.8112C21.2718 31.708 18.3218 34.9841 15.1352 37.7044C10.7229 41.4709 5.91139 44.1244 2.18361 45.8384C1.44164 46.1798 0.744393 46.483 0.103964 46.7494Z" fill="#212121"/>
</svg>
